<?xml version="1.0" encoding="UTF-8"?>
<svg id="_Слой_1" data-name=" Слой 1" xmlns="http://www.w3.org/2000/svg" viewBox="0 0 856 240">
  <path id="Capsule" d="M120,0h148c66.27,0,120,53.73,120,120h0c0,66.27-53.73,120-120,120H120C53.73,240,0,186.27,0,120h0C0,53.73,53.73,0,120,0Z" style="fill: #fff;"/>
  <circle id="Knob" cx="283" cy="120" r="74" style="fill: #3d3d3d;"/>
  <g id="LeftText" style="isolation: isolate;">
    <path d="M28,122.44c0-12.13,2.67-21.48,8.01-28.03s12.96-9.83,22.88-9.83c5.2,0,9.74.9,13.62,2.7,3.88,1.8,7.11,4.37,9.67,7.7s4.47,7.32,5.72,11.96c1.25,4.65,1.87,9.81,1.87,15.5,0,12.13-2.69,21.48-8.06,28.03s-12.98,9.83-22.83,9.83c-5.27,0-9.85-.9-13.73-2.7-3.88-1.8-7.09-4.37-9.62-7.7-2.53-3.33-4.42-7.31-5.67-11.96-1.25-4.64-1.87-9.81-1.87-15.5h0ZM42.98,122.44c0,3.68.31,7.06.94,10.14.62,3.09,1.58,5.74,2.86,7.96s2.93,3.95,4.94,5.2c2.01,1.25,4.4,1.87,7.18,1.87,5.06,0,8.98-1.98,11.75-5.93,2.77-3.95,4.16-10.36,4.16-19.24,0-3.54-.3-6.83-.88-9.88-.59-3.05-1.51-5.72-2.76-8.01s-2.88-4.07-4.89-5.36c-2.01-1.28-4.47-1.92-7.38-1.92-5.06,0-8.98,2.03-11.75,6.08-2.77,4.06-4.16,10.42-4.16,19.08h0Z" style="fill: #3d3d3d;"/>
    <path d="M93.73,86.04h43.16v12.69h-28.91v17.99h26.62v12.69h-26.62v29.43h-14.25v-72.8h0Z" style="fill: #3d3d3d;"/>
    <path d="M140.32,86.04h43.16v12.69h-28.91v17.99h26.62v12.69h-26.62v29.43h-14.25v-72.8Z" style="fill: #3d3d3d;"/>
  </g>
  <g id="RightText" style="isolation: isolate;">
    <path d="M576.31,208.98h-108.31V35.9h33.5v142.91h74.81v30.16h0Z" style="fill: #fff;"/>
    <path d="M673.12,170.65h-52.56l-12.96,38.32h-33.49l61.61-174.31h24.69l61.61,174.31h-35.21l-13.69-38.32h0ZM629.12,143.46h36.67l-12.71-38.57-5.13-27.2h-1.22l-5.13,27.44-12.47,38.32h-.01Z" style="fill: #fff;"/>
    <path d="M792.19,118.73h63.81v77.14c-6.85,5.77-15.03,9.97-24.57,12.61-9.53,2.63-18.95,3.96-28.24,3.96-10.92,0-21.07-1.73-30.44-5.19s-17.48-8.86-24.33-16.19c-6.84-7.33-12.22-16.69-16.14-28.06-3.91-11.37-5.87-24.89-5.87-40.55s2.32-30.2,6.97-41.66c4.65-11.46,10.76-20.77,18.34-27.94s16.09-12.36,25.55-15.58c9.45-3.21,19.07-4.82,28.85-4.82s18.38.74,25.79,2.23c7.41,1.48,13.32,3.05,17.72,4.7l-6.85,28.43c-4.08-1.65-8.64-2.92-13.69-3.83-5.05-.9-11.49-1.36-19.31-1.36-7.01,0-13.45,1.07-19.31,3.21-5.87,2.14-10.96,5.65-15.28,10.51s-7.66,11.09-10.02,18.67c-2.36,7.58-3.54,16.81-3.54,27.69s1.14,19.33,3.42,26.83c2.28,7.5,5.46,13.68,9.53,18.54,4.07,4.86,8.84,8.45,14.3,10.76,5.46,2.31,11.28,3.46,17.48,3.46,4.24,0,8.39-.53,12.47-1.61,4.07-1.07,7.49-2.68,10.27-4.82v-32.64l-36.92-3.96v-20.52h.01Z" style="fill: #fff;"/>
  </g>
</svg>